#!OML:ASF H:\Dans Jumps\Project 1\Capture day 1\Session 1\subject.ASF
:FULLY-SPECIFIED
:DEGREES
140
root 0.465659 17.464 -14.3372 7.18754 -0.500919 -1.59305
lowerback 0.0642973 -0.386368 0.165524
upperback 3.47785 -0.571346 1.7347
thorax 3.5549 -0.309487 1.67514
lowerneck -13.955 -0.186818 -2.58443
upperneck 27.0733 -0.137714 1.88809
head 11.0532 -0.0982951 1.10929
rclavicle -1.49089e-015 -2.16675e-014
rhumerus -21.8231 -17.0636 -80.1474
rradius 23.3651
rwrist 34.2496
rhand -17.6026 -25.7999
rfingers 7.12502
rthumb 8.65381 -55.6025
lclavicle -1.49089e-015 -2.16675e-014
lhumerus -19.7724 5.34802 85.3076
lradius 17.2759
lwrist -0.918971
lhand -23.922 -3.03936
lfingers 7.12502
lthumb 2.55272 26.9251
rfemur -16.9087 -2.03087 19.462
rtibia 24.9741
rfoot -14.1687 -4.01734
rtoes 5.32702
lfemur -16.7117 7.27658 -18.0668
ltibia 23.8428
lfoot -12.1648 4.81185
ltoes -1.33247
141
root 0.466289 17.4558 -14.3554 7.3244 -0.50037 -1.58945
lowerback 0.204443 -0.388409 0.159414
upperback 3.49737 -0.572959 1.74798
thorax 3.49619 -0.310616 1.69301
lowerneck -13.9708 -0.179041 -2.58287
upperneck 26.8893 -0.118088 1.86347
head 10.9866 -0.0912025 1.10097
rclavicle 6.06293e-015 1.88845e-014
rhumerus -21.8038 -16.9992 -80.1226
rradius 23.4264
rwrist 34.1282
rhand -17.6142 -25.8018
rfingers 7.12502
rthumb 8.6427 -55.6049
lclavicle 6.06293e-015 1.88845e-014
lhumerus -19.7787 5.32051 85.2735
lradius 17.3032
lwrist -0.78304
lhand -23.9502 -3.08453
lfingers 7.12502
lthumb 2.52543 26.8803
rfemur -17.3168 -2.03841 19.4646
rtibia 25.3357
rfoot -14.2801 -4.041
rtoes 5.23638
lfemur -17.1368 7.34092 -18.1054
ltibia 24.2233
lfoot -12.2762 4.78943
ltoes -1.37296
142
root 0.46699 17.4466 -14.3747 7.47145 -0.510082 -1.58384
lowerback 0.353413 -0.386319 0.151212
upperback 3.5171 -0.568886 1.75997
thorax 3.43257 -0.308934 1.71093
lowerneck -13.9866 -0.169585 -2.57773
upperneck 26.6966 -0.0969772 1.83866
head 10.9168 -0.0830213 1.09211
rclavicle 7.95139e-016 -1.03368e-014
rhumerus -21.7908 -16.9332 -80.0941
rradius 23.4878
rwrist 33.999
rhand -17.6314 -25.8001
rfingers 7.12502
rthumb 8.62601 -55.6038
lclavicle 7.95139e-016 -1.03368e-014
lhumerus -19.7916 5.28263 85.2376
lradius 17.3337
lwrist -0.636799
lhand -23.9713 -3.09666
lfingers 7.12502
lthumb 2.50509 26.8684
rfemur -17.7609 -2.0509 19.4654
rtibia 25.7316
rfoot -14.4003 -4.05431
rtoes 5.13497
lfemur -17.5923 7.41921 -18.1503
ltibia 24.634
lfoot -12.3988 4.76768
ltoes -1.41468
143
root 0.467664 17.4364 -14.3952 7.62704 -0.527232 -1.57599
lowerback 0.513535 -0.380369 0.139543
upperback 3.53773 -0.559468 1.77061
thorax 3.36347 -0.304646 1.7296
lowerneck -14.0039 -0.160598 -2.5662
upperneck 26.4911 -0.0768447 1.80915
head 10.8429 -0.075108 1.08025
rclavicle -9.93923e-017 -1.55052e-014
rhumerus -21.7826 -16.8649 -80.0623
rradius 23.5473
rwrist 33.8703
rhand -17.6536 -25.7926
rfingers 7.12502
rthumb 8.60467 -55.5973
lclavicle -9.93923e-017 -1.55052e-014
lhumerus -19.8142 5.23823 85.1986
lradius 17.365
lwrist -0.488128
lhand -24.0082 -3.16142
lfingers 7.12502
lthumb 2.46944 26.804
rfemur -18.2406 -2.06665 19.465
rtibia 26.1632
rfoot -14.5268 -4.06088
rtoes 5.03436
lfemur -18.0775 7.50806 -18.2011
ltibia 25.0751
lfoot -12.531 4.74665
ltoes -1.46499
144
root 0.468308 17.4251 -14.4168 7.7935 -0.549909 -1.5652
lowerback 0.681948 -0.372069 0.124181
upperback 3.55778 -0.546739 1.77953
thorax 3.28904 -0.298756 1.74866
lowerneck -14.0198 -0.152133 -2.55133
upperneck 26.2748 -0.0575576 1.77665
head 10.765 -0.0675338 1.06659
rclavicle 5.46658e-015 -9.74045e-015
rhumerus -21.7808 -16.79 -80.0292
rradius 23.6053
rwrist 33.7414
rhand -17.6698 -25.7945
rfingers 7.12502
rthumb 8.58903 -55.5998
lclavicle 5.46658e-015 -9.74045e-015
lhumerus -19.8438 5.18238 85.1562
lradius 17.3932
lwrist -0.328128
lhand -24.0528 -3.25623
lfingers 7.12502
lthumb 2.42633 26.7097
rfemur -18.7575 -2.08747 19.4631
rtibia 26.6298
rfoot -14.6583 -4.06252
rtoes 4.92121
lfemur -18.5946 7.60746 -18.2589
ltibia 25.5466
lfoot -12.6739 4.72358
ltoes -1.52168
145
root 0.468798 17.4128 -14.4394 7.96852 -0.577399 -1.55186
lowerback 0.860471 -0.361247 0.104814
upperback 3.57883 -0.530492 1.7864
thorax 3.20988 -0.29117 1.76793
lowerneck -14.0362 -0.146211 -2.53767
upperneck 26.0479 -0.0424018 1.74704
head 10.6837 -0.0615354 1.05359
rclavicle 1.88845e-015 -8.94531e-015
rhumerus -21.7847 -16.7153 -79.9937
rradius 23.6583
rwrist 33.6216
rhand -17.6932 -25.7914
rfingers 7.12502
rthumb 8.56644 -55.5976
lclavicle 1.88845e-015 -8.94531e-015
lhumerus -19.884 5.11912 85.1091
lradius 17.4274
lwrist -0.152734
lhand -24.0899 -3.34851
lfingers 7.12502
lthumb 2.39053 26.6178
rfemur -19.3079 -2.10879 19.4602
rtibia 27.1302
rfoot -14.7945 -4.06221
rtoes 4.80634
lfemur -19.1416 7.719 -18.3229
ltibia 26.0482
lfoot -12.8264 4.6951
ltoes -1.58679
146
root 0.469 17.3994 -14.4631 8.1535 -0.605041 -1.53921
lowerback 1.04874 -0.351564 0.0815243
upperback 3.59959 -0.515715 1.79455
thorax 3.12507 -0.284414 1.79068
lowerneck -14.0621 -0.137994 -2.51798
upperneck 25.8177 -0.0234478 1.71027
head 10.6032 -0.0540202 1.03756
rclavicle 4.87022e-015 -1.11319e-014
rhumerus -21.7932 -16.6426 -79.9541
rradius 23.7037
rwrist 33.5222
rhand -17.7165 -25.7866
rfingers 7.12502
rthumb 8.54397 -55.5938
lclavicle 4.87022e-015 -1.11319e-014
lhumerus -19.9332 5.05696 85.056
lradius 17.4632
lwrist 0.0338109
lhand -24.1112 -3.41784
lfingers 7.12502
lthumb 2.36993 26.5487
rfemur -19.8912 -2.13027 19.4606
rtibia 27.6627
rfoot -14.9369 -4.06387
rtoes 4.691
lfemur -19.7207 7.84293 -18.3889
ltibia 26.5795
lfoot -12.9895 4.65524
ltoes -1.6522
147
root 0.468812 17.3849 -14.4877 8.34795 -0.635068 -1.5272
lowerback 1.2456 -0.341489 0.053842
upperback 3.62107 -0.500402 1.80327
thorax 3.03622 -0.277493 1.8165
lowerneck -14.0975 -0.128925 -2.49614
upperneck 25.5843 -0.00278459 1.67005
head 10.5237 -0.0458725 1.02022
rclavicle 7.95139e-016 1.39149e-014
rhumerus -21.809 -16.5757 -79.9105
rradius 23.7471
rwrist 33.4349
rhand -17.733 -25.7735
rfingers 7.12502
rthumb 8.52805 -55.5813
lclavicle 7.95139e-016 1.39149e-014
lhumerus -19.9883 4.97755 85.0002
lradius 17.5036
lwrist 0.252787
lhand -24.1045 -3.43084
lfingers 7.12502
lthumb 2.37646 26.5357
rfemur -20.5049 -2.14688 19.4641
rtibia 28.2249
rfoot -15.0875 -4.07065
rtoes 4.57193
lfemur -20.3311 7.97941 -18.4578
ltibia 27.1396
lfoot -13.1592 4.6122
ltoes -1.75199
148
root 0.468168 17.3691 -14.5134 8.54651 -0.66435 -1.51419
lowerback 1.45907 -0.330952 0.0196846
upperback 3.64417 -0.484409 1.81246
thorax 2.93978 -0.270375 1.84645
lowerneck -14.1442 -0.119789 -2.47475
upperneck 25.3446 0.0188513 1.62769
head 10.4445 -0.0374942 1.00239
rclavicle 5.1684e-015 -7.95139e-015
rhumerus -21.8285 -16.5296 -79.8597
rradius 23.7835
rwrist 33.3712
rhand -17.7529 -25.7414
rfingers 7.12502
rthumb 8.50879 -55.55
lclavicle 5.1684e-015 -7.95139e-015
lhumerus -20.0492 4.88902 84.9403
lradius 17.5491
lwrist 0.488208
lhand -24.075 -3.39078
lfingers 7.12502
lthumb 2.40494 26.5754
rfemur -21.1414 -2.15818 19.4691
rtibia 28.8139
rfoot -15.2465 -4.087
rtoes 4.43748
lfemur -20.9673 8.12551 -18.5297
ltibia 27.7264
lfoot -13.3351 4.56414
ltoes -1.8665
149
root 0.467236 17.3521 -14.5399 8.74837 -0.700861 -1.50368
lowerback 1.68512 -0.318022 -0.015768
upperback 3.67007 -0.465289 1.82178
thorax 2.83912 -0.261701 1.8773
lowerneck -14.1968 -0.110035 -2.45486
upperneck 25.0949 0.041786 1.58528
head 10.363 -0.0285822 0.98499
rclavicle -2.78299e-015 -3.97569e-016
rhumerus -21.8528 -16.4972 -79.8039
rradius 23.8149
rwrist 33.3205
rhand -17.7713 -25.699
rfingers 7.12502
rthumb 8.49103 -55.5083
lclavicle -2.78299e-015 -3.97569e-016
lhumerus -20.1101 4.79559 84.8752
lradius 17.5862
lwrist 0.726563
lhand -24.0553 -3.36604
lfingers 7.12502
lthumb 2.42394 26.5999
rfemur -21.7987 -2.16299 19.478
rtibia 29.427
rfoot -15.415 -4.10647
rtoes 4.30065
lfemur -21.6243 8.28398 -18.6023
ltibia 28.3362
lfoot -13.5154 4.51821
ltoes -1.99897
150
root 0.466175 17.3339 -14.5668 8.9458 -0.735073 -1.49373
lowerback 1.93056 -0.304902 -0.0508229
upperback 3.69987 -0.445948 1.83134
thorax 2.73163 -0.252864 1.90818
lowerneck -14.2504 -0.100858 -2.4408
upperneck 24.8321 0.0647509 1.54498
head 10.2773 -0.0198521 0.969307
rclavicle -8.94531e-015 7.15625e-015
rhumerus -21.8881 -16.4789 -79.7399
rradius 23.8466
rwrist 33.2723
rhand -17.7836 -25.6525
rfingers 7.12502
rthumb 8.47921 -55.4622
lclavicle -8.94531e-015 7.15625e-015
lhumerus -20.1709 4.70112 84.8056
lradius 17.6121
lwrist 0.957101
lhand -24.0355 -3.32721
lfingers 7.12502
lthumb 2.44312 26.6385
rfemur -22.4636 -2.17479 19.4891
rtibia 30.0605
rfoot -15.5971 -4.12463
rtoes 4.17006
lfemur -22.292 8.44522 -18.6756
ltibia 28.9666
lfoot -13.7013 4.47385
ltoes -2.14389
151
root 0.465006 17.3145 -14.5943 9.14137 -0.770021 -1.48161
lowerback 2.18943 -0.291885 -0.0882464
upperback 3.73349 -0.426841 1.84022
thorax 2.62064 -0.244167 1.93967
lowerneck -14.2996 -0.0908641 -2.43187
upperneck 24.5526 0.0892142 1.50748
head 10.1851 -0.0104682 0.955613
rclavicle -1.98785e-015 5.1684e-015
rhumerus -21.9334 -16.4577 -79.6724
rradius 23.8824
rwrist 33.2153
rhand -17.7874 -25.6169
rfingers 7.12502
rthumb 8.47555 -55.4269
lclavicle -1.98785e-015 5.1684e-015
lhumerus -20.2368 4.62347 84.728
lradius 17.6267
lwrist 1.1589
lhand -24.0463 -3.34173
lfingers 7.12502
lthumb 2.43266 26.6241
rfemur -23.1375 -2.19661 19.4992
rtibia 30.7103
rfoot -15.7913 -4.1353
rtoes 4.04495
lfemur -22.9718 8.60731 -18.7528
ltibia 29.616
lfoot -13.8934 4.43293
ltoes -2.28989
152
root 0.463823 17.2939 -14.6222 9.3397 -0.805709 -1.47184
lowerback 2.45717 -0.278888 -0.120955
upperback 3.76907 -0.407852 1.84793
thorax 2.50673 -0.235346 1.96726
lowerneck -14.342 -0.0780803 -2.42108
upperneck 24.2576 0.117054 1.46899
head 10.0863 0.000640123 0.941616
rclavicle 1.98785e-015 -7.15625e-015
rhumerus -21.9889 -16.4387 -79.6032
rradius 23.9219
rwrist 33.1497
rhand -17.782 -25.5936
rfingers 7.12502
rthumb 8.48073 -55.4033
lclavicle 1.98785e-015 -7.15625e-015
lhumerus -20.3066 4.5752 84.6376
lradius 17.6267
lwrist 1.3129
lhand -24.0636 -3.3734
lfingers 7.12502
lthumb 2.41591 26.5927
rfemur -23.8246 -2.22501 19.513
rtibia 31.3746
rfoot -15.9965 -4.13964
rtoes 3.91837
lfemur -23.6677 8.76816 -18.8295
ltibia 30.2829
lfoot -14.0918 4.39766
ltoes -2.43495
153
root 0.462715 17.2721 -14.6506 9.54257 -0.840692 -1.46798
lowerback 2.72951 -0.265875 -0.143504
upperback 3.80742 -0.388914 1.85515
thorax 2.39312 -0.226264 1.98856
lowerneck -14.38 -0.0658145 -2.41495
upperneck 23.9501 0.143065 1.43822
head 9.98261 0.0114881 0.930856
rclavicle 4.96962e-015 1.35174e-014
rhumerus -22.05 -16.4282 -79.5317
rradius 23.956
rwrist 33.0786
rhand -17.7742 -25.5834
rfingers 7.12502
rthumb 8.48821 -55.3928
lclavicle 4.96962e-015 1.35174e-014
lhumerus -20.3788 4.55629 84.5351
lradius 17.6111
lwrist 1.42331
lhand -24.0813 -3.39957
lfingers 7.12502
lthumb 2.39881 26.5667
rfemur -24.5254 -2.25949 19.5337
rtibia 32.0519
rfoot -16.2142 -4.13516
rtoes 3.79818
lfemur -24.3809 8.92597 -18.9022
ltibia 30.9672
lfoot -14.298 4.36845
ltoes -2.56659
